<svg xmlns="http://www.w3.org/2000/svg" width="20" height="22" viewBox="0 0 20 22"><g><g><path fill="#807870" d="M20 10.444v4.98a.717.717 0 0 1-.264.554.739.739 0 0 1-.6.155l-2.535-.46v1.57c0 .398-.327.721-.731.721h-5.707l2.847 2.805a.713.713 0 0 1 0 1.02.735.735 0 0 1-.517.21.735.735 0 0 1-.517-.21l-3.5-3.45-3.502 3.45a.74.74 0 0 1-1.034 0 .713.713 0 0 1 0-1.02l2.847-2.805H1.08a.726.726 0 0 1-.732-.72V8.624c0-.398.327-.72.732-.72h.443A4.496 4.496 0 0 1 0 4.534C0 2.036 2.065 0 4.603 0a4.62 4.62 0 0 1 3.872 2.087A4.62 4.62 0 0 1 12.347 0c2.538 0 4.603 2.035 4.603 4.536 0 1.335-.589 2.537-1.524 3.368h.444c.404 0 .731.323.731.721v1.57l2.535-.46a.74.74 0 0 1 .6.155c.167.137.264.34.264.554zM9.207 4.536c0 1.706 1.408 3.094 3.14 3.094 1.731 0 3.14-1.388 3.14-3.094s-1.409-3.094-3.14-3.094c-1.732 0-3.14 1.388-3.14 3.094zM7.682 7.904h1.586c-.304-.27-.57-.58-.793-.92-.222.34-.489.65-.793.92zM4.603 7.63c1.732 0 3.14-1.388 3.14-3.094s-1.408-3.094-3.14-3.094c-1.731 0-3.14 1.388-3.14 3.094S2.872 7.63 4.603 7.63zm10.535 1.716H1.812v7.176h13.326zm3.399 1.964l-1.936.35v2.547l1.936.352z"/></g></g></svg>