<svg xmlns="http://www.w3.org/2000/svg" width="481" height="529" viewBox="0 0 481 529"><g><g opacity=".17"><path fill="#807870" d="M480.999 251.126v119.761c0 5.146-2.321 10.027-6.337 13.32a17.758 17.758 0 0 1-11.258 4.013c-1.061 0-2.128-.095-3.188-.287l-60.951-11.063v37.75c0 9.574-7.879 17.333-17.595 17.333H244.432l68.472 67.452a17.15 17.15 0 0 1 0 24.513c-3.436 3.383-7.94 5.076-12.442 5.076-4.503 0-9.006-1.691-12.442-5.076l-84.191-82.939-84.192 82.939c-6.87 6.768-18.01 6.77-24.883 0a17.15 17.15 0 0 1 0-24.513l68.472-67.452H25.986c-9.716 0-17.594-7.759-17.594-17.332V207.393c0-9.574 7.878-17.333 17.594-17.333h10.678C14.17 170.083.001 141.176.001 109.064.001 48.926 49.666 0 110.713 0c39.04 0 73.397 20.027 93.114 50.181C223.543 20.028 257.904.001 296.943.001c61.046 0 110.71 48.925 110.71 109.063 0 32.112-14.17 61.02-36.663 80.996h10.678c9.717 0 17.595 7.76 17.595 17.333v37.75l60.951-11.06a17.793 17.793 0 0 1 14.446 3.725c4.016 3.293 6.337 8.174 6.339 13.318zM221.424 109.065c0 41.023 33.877 74.396 75.52 74.396 41.644 0 75.522-33.374 75.522-74.396 0-41.023-33.878-74.397-75.521-74.397-41.644 0-75.523 33.374-75.521 74.397zM184.76 190.06h38.136a110.332 110.332 0 0 1-19.069-22.116 110.321 110.321 0 0 1-19.067 22.116zm-74.047-6.6c41.642 0 75.52-33.374 75.52-74.396 0-41.023-33.878-74.397-75.52-74.397-41.643 0-75.522 33.374-75.522 74.397s33.879 74.396 75.522 74.396zm253.362 41.266H43.58v172.562h320.494zm81.733 47.22l-46.543 8.447v61.23l46.543 8.447z"/></g></g></svg>