<svg xmlns="http://www.w3.org/2000/svg" width="14" height="15" viewBox="0 0 14 15"><g><g><path fill="#fff" d="M3.21.571h4.783c.699 0 1.933-.11 2.5.054h.326V.68h.217v.054l.49.108v.054l.325.108v.054h.109v.055l.163.054.054.108h.109l.109.162h.108l.326.38.11.053v.109l.162.108v.108l.109.054.054.163h.055v.108h.054l.109.325h.054l.109.487h.054v.216h.054c.128.416.055 1.266.055 1.786v3.572c0 1.16.086 2.438-.272 3.248h-.054v.108h-.055l-.108.325a91.53 91.53 0 0 1-.11.054v.108l-.108.054v.109l-.163.108v.108l-.326.27-.109.163h-.108l-.11.163h-.108l-.054.108-.163.054v.054l-.218.054v.054l-.217.054v.054h-.163v.055h-.163v.054h-.163v.054h-.217v.054h-.327v.054H5.058c-.643 0-1.641.11-2.174-.054C1.283 13.879.441 13.049-.05 11.45l-.054-1.407v-2.76-2.436l.054-1.299h.055v-.216h.054l.109-.487H.22L.33 2.52h.054v-.108h.054l.055-.163.109-.054v-.108l.163-.108V1.87l.38-.324.054-.109h.109l.109-.162h.108l.055-.108h.108l.055-.109h.109v-.054l.326-.108V.842l.489-.108V.68C2.838.62 3.09.676 3.21.57zm7.337 1.786v.055h-.218v.054c-.432.08-.839.712-.652 1.244v.217h.055c.136.581 1.092.886 1.684.487l.218-.27h.054v-.109h.054c.063-.11.002-.12.11-.216.005-.329.018-.723-.11-.92l-.163-.109-.054-.162c-.117-.091-.278-.102-.38-.216l-.598-.055zm-.054 1.353c-.04-.212-.04-.22 0-.432.133-.06.175-.099.38-.109.099.17.162.184.163.487-.137.073-.19.108-.435.109-.062-.062 0-.022-.108-.054zm-4.076 0v.055H6.09l-.707.216v.054h-.109v.054h-.108v.055h-.11v.054l-.217.054-.054.108h-.108l-.055.108h-.109l-.434.487-.272.217v.108l-.109.054v.108a91.53 91.53 0 0 1-.108.055v.108h-.055v.108h-.054v.108h-.054v.109h-.055l-.054.216h-.054v.162H3.21v.163h-.054v.27c-.344 1.14.172 2.412.652 3.086l.435.378.271.325h.11l.054.108.162.055v.054h.11v.054h.108v.054h.109v.054h.108v.054l.218.054v.054l.38.055c.241.08 1.012.277 1.413.162l.924-.217v-.054l.326-.108v-.054h.109V10.8l.217-.054.054-.109h.11l.054-.108h.108l.435-.487.272-.216v-.109l.108-.054v-.108l.11-.054v-.108h.053v-.109h.055v-.108h.054V9.07h.054l.055-.217h.054l.055-.379c.21-.63.213-1.318 0-1.948l-.055-.379h-.054l-.055-.216h-.054V5.82h-.054v-.108h-.055v-.108h-.054v-.108l-.109-.055v-.108l-.108-.054v-.108l-.272-.217-.435-.487H9.08l-.055-.108h-.109a49.688 49.688 0 0 1-.054-.108l-.217-.054v-.054h-.109v-.055l-.326-.108v-.054l-.326-.054v-.054h-.272c-.336-.101-.728-.111-1.195-.108zm.054.812l1.087.054v.055l.489.108v.054l.217.054v.054h.11v.054l.162.055.054.108h.11l.325.379.218.162v.108l.108.054v.109l.109.054v.108h.054l.055.216h.054l.054.325c.085.23.278.856.163 1.245h-.054v.27h-.054v.217h-.055v.163h-.054v.162h-.054l-.055.216H9.46v.109l-.109.054v.108l-.163.108v.109l-.217.162-.272.325H8.59l-.054.108-.163.054v.054h-.109v.054l-.217.054v.055l-.326.054v.054h-.217v.054h-.272v.054c-.435.124-1.168-.118-1.413-.216h-.163v-.055h-.109v-.054l-.217-.054-.055-.108h-.108l-.055-.108h-.108l-.38-.433-.164-.109v-.108l-.109-.054v-.108a47.765 47.765 0 0 0-.108-.054l-.055-.217h-.054V8.69H4.08l-.055-.325c-.087-.225-.276-.853-.163-1.245h.055v-.324h.054v-.163h.054v-.162h.055v-.163h.054V6.2h.054l.055-.216.108-.054V5.82l.11-.054V5.66l.434-.379.109-.162h.108l.055-.108h.108L5.33 4.9l.217-.054v-.054h.109v-.054h.163v-.054h.163V4.63h.163v-.055h.326v-.054z"/></g></g></svg>