<svg xmlns="http://www.w3.org/2000/svg" width="22" height="15" viewBox="0 0 22 15"><g><g><path d="M19.091 2.976a.687.687 0 0 1-.06.968l-7.578 6.692a.683.683 0 0 1-.905 0L2.97 3.944a.687.687 0 0 1-.061-.968.684.684 0 0 1 .966-.061L11 9.207l7.124-6.292a.684.684 0 0 1 .966.06zM22 2.058v10.884A2.058 2.058 0 0 1 19.947 15H2.053A2.058 2.058 0 0 1 0 12.942V2.058C0 .923.921 0 2.053 0h17.894C21.079 0 22 .923 22 2.058zm-1.369 0a.686.686 0 0 0-.684-.686H2.053a.686.686 0 0 0-.684.686v10.884c0 .378.307.686.684.686h17.894a.686.686 0 0 0 .684-.686z"/></g></g></svg>