<svg xmlns="http://www.w3.org/2000/svg" width="16" height="13" viewBox="0 0 16 13"><g><g><path fill="#fff" d="M13.292.767c1.481.038 2.222.878 2.23 2.52 0 .108-.004.22-.01.335-.065 1.393-1.103 3.29-3.117 5.69-2.078 2.515-3.84 3.774-5.287 3.78-.901 0-1.648-.77-2.249-2.31l-.63-2.11-.623-2.11c-.459-1.528-.95-2.29-1.473-2.29-.114 0-.512.222-1.194.666L.212 4.08l1.128-.935 1.11-.927C3.444 1.423 4.2.994 4.717.93c.07-.007.139-.01.209-.01 1.064 0 1.73.764 1.99 2.291.145.87.265 1.58.363 2.123.095.546.174.926.237 1.142.352 1.445.731 2.17 1.139 2.176.312 0 .794-.47 1.445-1.412.636-.967.978-1.683 1.022-2.15.014-.094.019-.183.019-.265 0-.631-.348-.946-1.041-.946-.352 0-.727.075-1.13.22.72-2.216 2.104-3.325 4.15-3.332h.172z"/></g></g></svg>