<svg xmlns="http://www.w3.org/2000/svg" width="19" height="12" viewBox="0 0 19 12"><g><g><path fill="#fff" d="M15.754 7.406c.61.589 1.252 1.142 1.798 1.79a5.2 5.2 0 0 1 .645.92c.247.475.023.997-.407 1.026l-2.675-.001c-.69.056-1.24-.219-1.703-.686-.37-.373-.713-.77-1.07-1.156a2.524 2.524 0 0 0-.48-.424c-.365-.235-.682-.163-.891.214-.213.384-.26.808-.282 1.236-.028.623-.219.787-.851.816-1.352.063-2.636-.14-3.828-.815-1.05-.595-1.866-1.436-2.575-2.387C2.054 6.086.996 4.051.045 1.959c-.213-.472-.057-.725.469-.734a73.167 73.167 0 0 1 2.618-.001c.355.005.59.206.727.538a16.013 16.013 0 0 0 1.775 3.256c.193.27.39.54.67.73.31.21.546.14.692-.202.093-.217.133-.45.154-.683.07-.8.078-1.597-.043-2.394-.074-.497-.357-.818-.858-.912-.256-.048-.218-.143-.094-.287.215-.25.417-.404.82-.404h3.023c.476.093.582.304.647.778l.003 3.324c-.006.184.092.729.426.85.267.086.443-.125.604-.293.723-.76 1.24-1.659 1.702-2.59.204-.409.38-.834.551-1.258.126-.315.325-.47.683-.464l2.91.003c.086 0 .173.001.257.015.49.083.624.292.473.766-.239.743-.703 1.363-1.157 1.985-.485.665-1.004 1.307-1.485 1.975-.442.611-.407.919.142 1.449z"/></g></g></svg>