<svg xmlns="http://www.w3.org/2000/svg" width="17" height="12" viewBox="0 0 17 12"><g><g><path fill="#fff" d="M16.31 6.06V6.07c0 2.326-.23 3.663-.686 4.425-.438.771-.914.911-1.882.976-.968.055-3.4.088-5.507.088-2.11 0-4.543-.033-5.51-.089-.966-.065-1.442-.204-1.884-.976-.451-.762-.683-2.1-.683-4.425v-.005-.003c0-2.337.232-3.664.683-4.434.442-.772.919-.913 1.885-.968.966-.064 3.399-.091 5.51-.091 2.106 0 4.538.027 5.505.092.968.054 1.444.196 1.882.967.456.77.686 2.097.686 4.435zm-5.048.003L6.215 3.065V9.06z"/></g></g></svg>